<?xml version="1.0" encoding="utf-8"?>
<!-- Generator: Adobe Illustrator 23.0.3, SVG Export Plug-In . SVG Version: 6.00 Build 0)  -->
<svg version="1.1" id="Layer_1" xmlns="http://www.w3.org/2000/svg" xmlns:xlink="http://www.w3.org/1999/xlink" x="0px" y="0px"
	 viewBox="0 0 878 635" style="enable-background:new 0 0 878 635;" xml:space="preserve">
<style type="text/css">
	.st0{opacity:0.5;fill:#FFFFFF;enable-background:new    ;}
	.st1{fill:#211D16;}
	.st2{fill:#161616;}
	.st3{opacity:0.1;}
	.st4{fill:#F2F2F2;}
	.st5{clip-path:url(#SVGID_2_);}
	.st6{fill:#D85078;}
	.st7{fill:#FF3265;}
	.st8{fill:#C9D4D6;}
	.st9{fill:#D85061;}
	.st10{fill:#FC8F36;}
	.st11{fill:#60A07A;}
	.st12{fill:none;stroke:#211D16;stroke-width:3;stroke-miterlimit:10;}
	.st13{fill:#4C4231;}
	.st14{fill:#FFE499;}
	.st15{fill:#352F24;}
	.st16{fill:#E59A4A;}
	.st17{fill:#FFBC00;}
	.st18{enable-background:new    ;}
	.st19{fill:#FFF3F5;}
	.st20{opacity:0.1;enable-background:new    ;}
	.st21{fill:#19CC92;}
	.st22{fill:none;stroke:#211D16;stroke-miterlimit:10;}
	.st23{fill:#FFFFFF;}
	.st24{fill:#EFA867;}
	.st25{fill:none;stroke:#FFBC00;stroke-width:3;stroke-miterlimit:10;}
	.st26{opacity:0.2;}
	.st27{fill:#E2A60E;}
	.st28{fill:none;stroke:#000000;stroke-miterlimit:10;}
	.st29{fill:#1A1747;}
	.st30{fill:#F4F4F4;}
	.st31{clip-path:url(#SVGID_4_);}
	.st32{fill:none;stroke:#F4F4F4;stroke-miterlimit:10;}
	.st33{fill:#444444;}
	.st34{fill:#333333;}
	.st35{fill:#664B1B;}
	.st36{clip-path:url(#SVGID_6_);}
	.st37{fill:#705518;}
	.st38{fill:#DBA47F;}
	.st39{fill:#F2B58C;}
	.st40{fill:#F7F23C;}
	.st41{clip-path:url(#SVGID_8_);}
	.st42{fill-opacity:0.1;}
	.st43{fill:#E2D71A;}
	.st44{fill:#424242;}
	.st45{clip-path:url(#SVGID_10_);}
	.st46{opacity:0.1;fill:#424242;enable-background:new    ;}
	.st47{fill:#505050;}
	.st48{clip-path:url(#SVGID_12_);}
	.st49{fill:#FFD04D;}
	.st50{fill:#7A7A7A;}
	.st51{fill:#8CDDD1;}
	.st52{fill:#AAAAAA;}
	.st53{opacity:0.4;enable-background:new    ;}
	.st54{clip-path:url(#SVGID_14_);}
</style>
<title>hero-illustration</title>
<g>
	<g id="Background">
		<path class="st0" d="M169.4,112.6c4.9-19.6-7.1-39.5-26.7-44.4c-10.6-2.6-21.7-0.4-30.5,6c-11.4-16.7-34.3-21-51-9.5
			c-14.7,10.1-20.1,29.3-12.6,45.5h-2.4c-16.8,0.1-30.3,13.7-30.4,30.5l0,0c0.1,16.8,13.7,30.3,30.5,30.4l110.9-0.2
			c16.8-0.1,30.3-13.7,30.4-30.5l0,0C187.5,128.3,180.4,117.4,169.4,112.6z"/>
	</g>
	<g id="Computer">
		<rect x="338.3" y="361.6" class="st1" width="79.4" height="79.4"/>
		<path class="st2" d="M417.2,362.1v78.4h-78.4v-78.4H417.2 M418.2,361.1h-80.4v80.4h80.4V361.1z"/>
		<g class="st3">
			<rect x="337.8" y="354.1" width="80.4" height="34.9"/>
		</g>
		<path class="st4" d="M192.3,112.7h371.4c1.1,0,2,0.9,2,1.9v245.6c0,1.1-0.9,2-2,2H192.3c-1.1,0-1.9-0.9-1.9-2V114.6
			C190.4,113.6,191.2,112.7,192.3,112.7z"/>
		<path class="st2" d="M558.8,119.5v235.7H197.2V119.5H558.8 M563.7,105.8H192.3c-4.9,0-8.8,4-8.8,8.8v245.5c0,4.9,4,8.8,8.8,8.8
			h371.4c4.9,0,8.8-4,8.8-8.8V114.6C572.5,109.8,568.5,105.8,563.7,105.8L563.7,105.8z"/>
		<path class="st1" d="M316.6,466.5c-2.8,0.1-5.5-1.2-7.1-3.5c-1-1.5-1.2-3.5-0.4-5.1l4-8.8c2.3-5.1,8.3-8.5,15-8.5h100
			c6.7,0,12.7,3.4,15,8.5l4,8.8c0.8,1.7,0.6,3.6-0.4,5.1c-1.6,2.3-4.3,3.6-7.1,3.5H316.6z"/>
		<path class="st2" d="M428,441.1c6.5,0,12.3,3.3,14.5,8.1l4,8.8c0.7,1.5,0.6,3.2-0.4,4.6c-1.5,2.1-4.1,3.3-6.7,3.2H316.6
			c-2.6,0.1-5.1-1.1-6.7-3.2c-0.9-1.4-1.1-3.1-0.4-4.6l4-8.8c2.2-4.9,8-8.1,14.5-8.1H428 M428,440h-99.9c-6.9,0-13.1,3.5-15.5,8.8
			l-4,8.8c-2.1,4.5,2.1,9.4,8,9.4h122.8c6,0,10.1-4.9,8-9.4l-4-8.8C441,443.5,434.9,440,428,440z"/>
	</g>
	<g id="UI">
		<g>
			<defs>
				<rect id="SVGID_1_" x="197.5" y="120" width="361" height="246"/>
			</defs>
			<clipPath id="SVGID_2_">
				<use xlink:href="#SVGID_1_"  style="overflow:visible;"/>
			</clipPath>
			<g class="st5">
				<path class="st6" d="M395.5,121c0,0,27,50,4,64s-25-6-37-10s-16.1,26.9-30,25s-30,2-34-17s-25,3-30-6s0-56,0-56H395.5z"/>
				<path class="st7" d="M396.5,123c0,0,27,50,4,64s-25-6-37-10s-16.1,26.9-30,25s-30,2-34-17s-25,3-30-6s0-56,0-56H396.5z"/>
				<g class="st3">
					<rect x="148.5" y="121" width="459" height="17"/>
				</g>
				<rect x="148.5" y="120" class="st8" width="459" height="17"/>
				<circle class="st9" cx="571.5" cy="129" r="4"/>
				<circle class="st10" cx="583" cy="129" r="4"/>
				<circle class="st11" cx="594.5" cy="129" r="4"/>
			</g>
		</g>
	</g>
	<g id="Dinky_truck">
		<path class="st1" d="M210,300.5c2.8-1,5.8-0.7,8.3,0.9l11.8,7.4c4.5,2.8,5.9,8.7,3.1,13.1c-0.5,0.7-1,1.4-1.6,2
			c5-1.8,7.6-7.2,5.8-12.2c-0.7-2-2.1-3.8-3.9-4.9l-11.8-7.4C218,297,213.2,297.5,210,300.5z"/>
		<line class="st12" x1="175.9" y1="248.1" x2="177.7" y2="281.4"/>
		<line class="st12" x1="158.9" y1="266.4" x2="191.9" y2="261.4"/>
		<line class="st12" x1="161.5" y1="300.8" x2="158.9" y2="266.4"/>
		<line class="st12" x1="177.7" y1="281.4" x2="141.6" y2="286.6"/>
		<line class="st12" x1="139.2" y1="288" x2="159.3" y2="305.4"/>
		<line class="st12" x1="118.9" y1="311.5" x2="159.3" y2="305.4"/>
		<line class="st12" x1="139.8" y1="330.1" x2="139.2" y2="288"/>
		<line class="st12" x1="116.5" y1="313" x2="141.2" y2="332.5"/>
		<line class="st12" x1="96.9" y1="337.7" x2="139.8" y2="330.1"/>
		<line class="st12" x1="117.2" y1="314.2" x2="118.5" y2="357.5"/>
		<line class="st12" x1="95.7" y1="338.5" x2="118.5" y2="357.5"/>
		<line class="st12" x1="75.7" y1="365.1" x2="118.5" y2="357.5"/>
		<line class="st12" x1="96.4" y1="339.7" x2="98.7" y2="379.1"/>
		<line class="st12" x1="75.7" y1="365.1" x2="97.1" y2="381.8"/>
		<line class="st12" x1="74" y1="367.8" x2="73.6" y2="405.6"/>
		<path class="st13" d="M171,389.9c0,5.4-4.4,12.9-9.8,12.9s-9.8-7.5-9.8-12.9c0.2-5.4,4.7-9.6,10.1-9.5
			C166.7,380.6,170.8,384.7,171,389.9z"/>
		<path class="st14" d="M169.5,408L169.5,408c3,0,5.5,2.5,5.5,5.5v21c0,3-2.5,5.5-5.5,5.5l0,0c-3,0-5.5-2.5-5.5-5.5v-21
			C164,410.5,166.5,408,169.5,408z"/>
		<path class="st15" d="M163.3,407.2L163.3,407.2c3.6-1.8,4.9-6.4,4.4-10.5c-0.3-2.4-0.3-4.9,0-7.4c0.5-4.2-0.8-8.8-4.4-10.5l0,0
			c-3.6-1.8-9.3,1.9-10.3,8.6c-0.5,3.7-0.5,7.4,0,11.1C154,405.3,159.7,409,163.3,407.2z"/>
		<path class="st14" d="M155.3,399h6.4c5.1,0,9.3,4.1,9.3,9.3l0,0v25.5c0,5.1-4.1,9.3-9.3,9.3l0,0h-0.5c-5.1,0-9.3-4.1-9.3-9.3l0,0
			v-31.4C152,400.5,153.5,399,155.3,399z"/>
		<path class="st13" d="M169,409l7,11l-2,2l-14-10C163.2,411.6,166.2,410.5,169,409"/>
		<g class="st3">
			<path d="M169.7,410.1L169,409c-2.8,1.5-5.8,2.6-9,3l1.3,0.9C164.3,412.5,167.1,411.6,169.7,410.1z"/>
		</g>
		<line class="st12" x1="98.3" y1="381.1" x2="60.7" y2="383.9"/>
		<rect x="174" y="422" class="st16" width="2" height="26"/>
		<circle class="st1" cx="175" cy="420" r="3"/>
		<path class="st1" d="M175.3,249.8l14.4,11.9l-66,86.7l-79.6,91.4L31,427.9l71.5-93.4L175.3,249.8 M175,245.6l-1.9,2.2l-72.8,84.6
			l-0.1,0.1l-0.1,0.1L28.6,426l-1.7,2.2l2,1.9L42.2,442l2.3,2.1l2-2.3l79.6-91.4l0.1-0.1l0.1-0.1l66-86.7l1.8-2.3l-2.2-1.8
			l-14.4-11.9L175,245.6L175,245.6z"/>
		<path class="st17" d="M101.9,469.8H17.6v-40c0-18.2,14.8-33,33-33h51.2"/>
		<path class="st17" d="M161.1,356h-48c-6.2,0-11.2,5-11.2,11.2l0,0v102.5h102.5v-70.4C204.4,375.4,185,356,161.1,356
			C161.1,356,161.1,356,161.1,356z M146.8,412.1h-36.5v-42.1c0-3.9,3.1-7,7-7h29.5V412.1z M197.3,454.3h-5
			c-5.7,0.1-10.8-3.6-12.6-9.1c-0.2-0.8-0.5-1.6-0.9-2.3c-2.8-6.4-9-10.6-15.9-11h-0.2c-5,0-9-4-9-9v-5h43.5L197.3,454.3z
			 M197.3,412.1h-43.5v-49.1h12.5c17.1,0,31,13.9,31,31V412.1z"/>
		<path class="st15" d="M187.5,506.1c-6.2,0-11.1-5-11.1-11.1c0-6.2,5-11.1,11.1-11.1c6.1,0,11.1,5,11.1,11.1
			C198.6,501.2,193.7,506.1,187.5,506.1C187.5,506.1,187.5,506.1,187.5,506.1z"/>
		<path class="st13" d="M187.5,485.4c5.3,0,9.6,4.3,9.6,9.6c0,5.3-4.3,9.6-9.6,9.6s-9.6-4.3-9.6-9.6c0,0,0,0,0,0
			C177.9,489.7,182.2,485.4,187.5,485.4 M187.5,482.4c-7,0-12.6,5.7-12.6,12.6c0,7,5.7,12.6,12.6,12.6s12.6-5.7,12.6-12.6
			c0,0,0,0,0,0C200.1,488,194.5,482.4,187.5,482.4L187.5,482.4L187.5,482.4z"/>
		<path class="st15" d="M156.6,506.1c-6.2,0-11.1-5-11.1-11.1c0-6.2,5-11.1,11.1-11.1c6.2,0,11.1,5,11.1,11.1
			S162.8,506.1,156.6,506.1L156.6,506.1z"/>
		<path class="st13" d="M156.6,485.4c5.3,0,9.7,4.3,9.7,9.6c0,5.3-4.3,9.7-9.6,9.7c-5.3,0-9.7-4.3-9.7-9.6c0,0,0,0,0,0
			C147,489.7,151.3,485.4,156.6,485.4 M156.6,482.4c-7,0-12.7,5.6-12.7,12.6c0,7,5.6,12.7,12.6,12.7s12.7-5.6,12.7-12.6c0,0,0,0,0,0
			C169.2,488,163.6,482.4,156.6,482.4C156.6,482.4,156.6,482.4,156.6,482.4L156.6,482.4z"/>
		<path class="st15" d="M125.7,506.1c-6.2,0-11.1-5-11.1-11.1c0-6.2,5-11.1,11.1-11.1s11.1,5,11.1,11.1l0,0
			C136.9,501.2,131.9,506.1,125.7,506.1z"/>
		<path class="st13" d="M125.7,485.4c5.3,0,9.6,4.3,9.6,9.6c0,5.3-4.3,9.6-9.6,9.6c-5.3,0-9.6-4.3-9.6-9.6
			C116.1,489.7,120.4,485.4,125.7,485.4 M125.7,482.4c-7,0-12.6,5.6-12.6,12.6c0,7,5.6,12.6,12.6,12.6c7,0,12.6-5.6,12.6-12.6
			c0,0,0,0,0,0C138.4,488,132.7,482.4,125.7,482.4L125.7,482.4z"/>
		<path class="st15" d="M94.8,506.1c-6.2,0-11.1-5-11.1-11.2c0-6.2,5-11.1,11.2-11.1c6.1,0,11.1,5,11.1,11.1
			C106,501.2,101,506.1,94.8,506.1C94.9,506.2,94.9,506.2,94.8,506.1z"/>
		<path class="st13" d="M94.8,485.4c5.3,0,9.6,4.3,9.6,9.6c0,5.3-4.3,9.6-9.6,9.6c-5.3,0-9.6-4.3-9.6-9.6c0,0,0,0,0,0
			C85.2,489.7,89.5,485.4,94.8,485.4 M94.8,482.4c-7,0-12.6,5.7-12.6,12.6c0,7,5.7,12.6,12.6,12.6c7,0,12.6-5.7,12.6-12.6
			S101.8,482.4,94.8,482.4C94.8,482.4,94.8,482.4,94.8,482.4z"/>
		<path class="st15" d="M64,506.1c-6.2,0-11.2-4.9-11.2-11.1c0-6.2,4.9-11.2,11.1-11.2s11.2,4.9,11.2,11.1c0,0,0,0,0,0
			C75.1,501.1,70.1,506.1,64,506.1z"/>
		<path class="st13" d="M64,485.4c5.3,0,9.6,4.3,9.6,9.7c0,5.3-4.3,9.6-9.7,9.6c-5.3,0-9.6-4.3-9.6-9.7
			C54.3,489.7,58.7,485.4,64,485.4 M64,482.4c-7,0-12.7,5.6-12.7,12.6c0,7,5.6,12.7,12.6,12.7c7,0,12.7-5.6,12.7-12.6c0,0,0,0,0-0.1
			C76.6,488,71,482.4,64,482.4z"/>
		<path class="st15" d="M33.1,506.1c-6.2,0-11.1-5-11.1-11.1c0-6.2,5-11.1,11.1-11.1s11.1,5,11.1,11.1l0,0
			C44.2,501.2,39.2,506.1,33.1,506.1z"/>
		<path class="st13" d="M33.1,485.4c5.3,0,9.6,4.3,9.6,9.6c0,5.3-4.3,9.6-9.6,9.6s-9.6-4.3-9.6-9.6c0,0,0,0,0,0
			C23.4,489.7,27.8,485.4,33.1,485.4 M33.1,482.4c-7,0-12.6,5.6-12.6,12.6c0,7,5.6,12.6,12.6,12.6S45.7,502,45.7,495c0,0,0,0,0,0
			C45.7,488,40.1,482.4,33.1,482.4z"/>
		<path class="st15" d="M205,482.8c3.3,0,6,2.7,6,6v9.7c0,3.3-2.7,6-6,6H17c-3.3,0-6-2.7-6-6v-9.7c0-3.3,2.7-6,6-6H205 M205,476.8
			H17c-6.6,0-12,5.4-12,12v9.7c0,6.6,5.4,12,12,12h188c6.6,0,12-5.4,12-12v-9.7C217,482.1,211.6,476.8,205,476.8z"/>
		<rect x="24.8" y="436.1" class="st1" width="64.6" height="21.1"/>
		<line class="st12" x1="158.9" y1="266.4" x2="175.8" y2="280.9"/>
		<g class="st18">
			<path class="st19" d="M38.6,444.5c0,0.4-0.1,0.8-0.2,1.2s-0.4,0.7-0.6,1c0.4,0.3,0.6,0.6,0.8,1c0.2,0.4,0.2,0.8,0.2,1.2v0.8
				c0,0.5-0.1,1-0.2,1.4c-0.1,0.4-0.3,0.8-0.6,1c-0.3,0.3-0.6,0.5-0.9,0.6c-0.4,0.1-0.8,0.2-1.2,0.2h-5.6v-12.4h5.5
				c0.4,0,0.8,0.1,1.2,0.2s0.7,0.4,0.9,0.6c0.3,0.3,0.5,0.6,0.6,1c0.1,0.4,0.2,0.8,0.2,1.2V444.5z M32.3,445.6h2.9
				c0.2,0,0.3,0,0.5-0.1c0.1-0.1,0.3-0.2,0.4-0.3c0.1-0.1,0.2-0.3,0.3-0.4c0.1-0.2,0.1-0.3,0.1-0.5v-0.2c0-0.2,0-0.4-0.1-0.5
				c-0.1-0.2-0.1-0.3-0.3-0.4c-0.1-0.1-0.2-0.2-0.4-0.3c-0.1-0.1-0.3-0.1-0.5-0.1h-2.9V445.6z M36.6,449.1c0-0.2,0-0.4-0.1-0.5
				c-0.1-0.2-0.2-0.3-0.3-0.4c-0.1-0.1-0.2-0.2-0.4-0.3c-0.2-0.1-0.3-0.1-0.5-0.1h-3.1v2.8h3.1c0.2,0,0.3,0,0.5-0.1
				c0.2-0.1,0.3-0.2,0.4-0.3s0.2-0.3,0.3-0.4c0.1-0.2,0.1-0.3,0.1-0.5V449.1z"/>
			<path class="st19" d="M40,440.5h5.6c0.4,0,0.8,0.1,1.1,0.3c0.4,0.2,0.7,0.4,0.9,0.7c0.3,0.3,0.5,0.6,0.6,1
				c0.2,0.4,0.2,0.8,0.2,1.3v5.8c0,0.5-0.1,0.9-0.2,1.3s-0.4,0.7-0.6,1c-0.3,0.3-0.6,0.5-0.9,0.7c-0.4,0.2-0.7,0.3-1.1,0.3H40V440.5
				z M45,450.6c0.2,0,0.3,0,0.5-0.1s0.3-0.2,0.4-0.3c0.1-0.1,0.2-0.3,0.3-0.4c0.1-0.2,0.1-0.3,0.1-0.5v-5.1c0-0.2,0-0.4-0.1-0.5
				s-0.1-0.3-0.3-0.4c-0.1-0.1-0.2-0.2-0.4-0.3c-0.1-0.1-0.3-0.1-0.5-0.1h-2.8v7.8H45z"/>
			<path class="st19" d="M49.9,450.1c0.8-0.6,1.7-1.3,2.5-2s1.6-1.4,2.3-2c0.2-0.2,0.4-0.3,0.5-0.5s0.3-0.3,0.3-0.5
				c0.1-0.2,0.1-0.3,0.2-0.5c0-0.2,0.1-0.4,0.1-0.7c0-0.2,0-0.4-0.1-0.6c-0.1-0.2-0.2-0.3-0.3-0.5c-0.1-0.1-0.3-0.2-0.5-0.3
				c-0.2-0.1-0.4-0.1-0.6-0.1h-1c-0.2,0-0.4,0-0.6,0.1c-0.2,0.1-0.3,0.2-0.5,0.3c-0.1,0.1-0.2,0.3-0.3,0.5s-0.1,0.4-0.1,0.6v0.4h-2
				v-0.8c0-0.4,0.1-0.9,0.3-1.3c0.2-0.4,0.4-0.7,0.7-1c0.3-0.3,0.6-0.5,1-0.7s0.8-0.3,1.3-0.3h1.6c0.4,0,0.9,0.1,1.3,0.3
				s0.7,0.4,1,0.7c0.3,0.3,0.5,0.6,0.7,1c0.2,0.4,0.3,0.8,0.3,1.3v0.3c0,0.4,0,0.7,0,1c0,0.3-0.1,0.6-0.2,0.9s-0.2,0.5-0.4,0.8
				s-0.4,0.5-0.7,0.8c-0.7,0.7-1.4,1.3-2.2,2c-0.8,0.6-1.5,1.2-2.3,1.8h5.6v1.9h-7.7V450.1z"/>
			<path class="st19" d="M64.1,440.4c0.5,0,0.9,0.1,1.3,0.3c0.4,0.2,0.8,0.4,1.1,0.7c0.3,0.3,0.6,0.7,0.7,1.1
				c0.2,0.4,0.3,0.9,0.3,1.3v5.7c0,0.5-0.1,0.9-0.3,1.3c-0.2,0.4-0.4,0.8-0.7,1.1c-0.3,0.3-0.7,0.5-1.1,0.7
				c-0.4,0.2-0.8,0.3-1.3,0.3h-1.9c-0.5,0-0.9-0.1-1.3-0.3c-0.4-0.2-0.8-0.4-1.1-0.7c-0.3-0.3-0.5-0.7-0.7-1.1
				c-0.2-0.4-0.3-0.8-0.3-1.3v-5.7c0-0.5,0.1-0.9,0.3-1.3c0.2-0.4,0.4-0.8,0.7-1.1c0.3-0.3,0.7-0.5,1.1-0.7c0.4-0.2,0.8-0.3,1.3-0.3
				H64.1z M65.3,444.2c0-0.2,0-0.4-0.1-0.6s-0.2-0.4-0.3-0.5c-0.1-0.1-0.3-0.3-0.5-0.3c-0.2-0.1-0.4-0.1-0.6-0.1h-1.3
				c-0.2,0-0.4,0-0.6,0.1c-0.2,0.1-0.3,0.2-0.5,0.3c-0.1,0.1-0.2,0.3-0.3,0.5S61,444,61,444.2v4.9c0,0.2,0,0.4,0.1,0.6
				s0.2,0.4,0.3,0.5c0.1,0.1,0.3,0.2,0.5,0.3c0.2,0.1,0.4,0.1,0.6,0.1h1.3c0.2,0,0.4,0,0.6-0.1c0.2-0.1,0.3-0.2,0.5-0.3
				c0.1-0.1,0.2-0.3,0.3-0.5s0.1-0.4,0.1-0.6V444.2z"/>
			<path class="st19" d="M69,442.7l1.4-2.3h2.4v12.4h-2.1v-10.1H69z"/>
			<path class="st19" d="M82.9,442.6c0.2,0.6,0.3,1.3,0.2,1.9c-0.1,0.6-0.4,1.2-1,1.6l-0.1,0.1l0.1,0.1c0.3,0.3,0.6,0.7,0.7,1.1
				c0.5,1.1,0.5,2.2,0,3.3c-0.2,0.4-0.4,0.7-0.7,1c-0.3,0.3-0.6,0.5-1,0.7c-0.3,0.1-0.6,0.2-0.8,0.3c-0.3,0.1-0.6,0.1-0.8,0.1
				c-0.3,0-0.6,0-0.8,0c-0.3,0-0.6,0-0.9,0c-0.4,0-0.8-0.1-1.2-0.3c-0.4-0.2-0.7-0.4-1-0.7c-0.3-0.3-0.5-0.6-0.7-1
				c-0.2-0.4-0.2-0.8-0.2-1.2v-0.4h2c0,0.2,0,0.4,0.1,0.6c0.1,0.2,0.2,0.4,0.3,0.5s0.3,0.2,0.5,0.3s0.4,0.1,0.6,0.1
				c0.2,0,0.4,0,0.6,0c0.3,0,0.5-0.1,0.8-0.1c0.3,0,0.5-0.2,0.7-0.3c0.3-0.2,0.4-0.5,0.5-0.9s0.1-0.7,0-1.1c-0.2-0.6-0.6-1-1.3-1.1
				c-0.3-0.1-0.7-0.1-1.2-0.1h-0.6v-1.9h0.6c0.5,0,0.9,0,1.2-0.1c0.4,0,0.6-0.2,0.9-0.3c0.1-0.1,0.3-0.3,0.3-0.4
				c0.1-0.2,0.1-0.4,0.1-0.6c0-0.2,0-0.4-0.1-0.6s-0.2-0.4-0.4-0.5c-0.1-0.1-0.3-0.2-0.6-0.3c-0.2-0.1-0.5-0.1-0.8-0.1
				c-0.3,0-0.6,0-0.8,0c-0.3,0-0.6,0.1-0.8,0.2c-0.2,0.1-0.4,0.3-0.6,0.5c-0.1,0.2-0.2,0.5-0.2,0.7h-2v-0.4c0-0.5,0.1-1,0.3-1.4
				s0.5-0.7,0.9-1c0.4-0.3,0.8-0.5,1.2-0.6c0.5-0.1,0.9-0.2,1.4-0.2c0.2,0,0.4,0,0.6,0c0.1,0,0.2,0,0.3,0c0.1,0,0.1,0,0.2,0
				c0.1,0,0.3,0,0.4,0c0.2,0,0.3,0,0.4,0.1c0.3,0.1,0.5,0.2,0.8,0.3s0.5,0.3,0.7,0.5c0.2,0.2,0.4,0.4,0.6,0.7
				C82.6,442.1,82.8,442.3,82.9,442.6z"/>
		</g>
		<rect x="97.6" y="396.8" class="st20" width="4.2" height="73"/>
		<circle class="st21" cx="234.4" cy="327.3" r="24.6"/>
		<g class="st3">
			<path d="M255.7,315c5.3,12.5-0.5,26.9-13,32.2c-11.5,4.9-24.9,0.4-31-10.6c5.3,12.5,19.7,18.3,32.2,13
				c12.5-5.3,18.3-19.7,13-32.2C256.5,316.6,256.1,315.8,255.7,315z"/>
		</g>
		<path class="st1" d="M213.9,294.9c-2,2.1-2.9,5.1-2.5,8l2.1,13.8c0.8,5.2,5.7,8.8,10.9,8c0.8-0.1,1.6-0.4,2.4-0.7
			c-3.6,3.9-9.7,4.1-13.5,0.5c-1.6-1.5-2.6-3.4-2.9-5.6l-2.1-13.8C207.5,300.8,209.9,296.6,213.9,294.9z"/>
		<line class="st22" x1="187.7" y1="257.4" x2="213.5" y2="299.2"/>
		<circle class="st1" cx="212.3" cy="299.9" r="5.6"/>
		<g class="st18">
			<path class="st23" d="M234.3,323.9l4.3-4.5l3,2.9l-4.3,4.5l4.4,4.2l-2.9,3l-4.4-4.2l-4.2,4.4l-3-2.9l4.2-4.4l-4.5-4.3l2.9-3
				L234.3,323.9z"/>
		</g>
		<polygon class="st24" points="17.6,470 17.6,474 101.9,474 204.3,474 204.3,470 		"/>
	</g>
	<g id="Crane">
		<path class="st1" d="M513.9,255.4c-1.6,1.3-2.6,3.3-2.6,5.4v9.9c0,3.8,3.1,6.8,6.8,6.8c0.6,0,1.2-0.1,1.7-0.2
			c-3,2.3-7.3,1.8-9.6-1.1c-1-1.2-1.5-2.7-1.5-4.2V262C508.8,258.9,510.9,256.2,513.9,255.4z"/>
		<path class="st6" d="M453.9,291l3.2-24.1c0.3-2.2,2.3-3.7,4.5-3.4l98,13.2c2.2,0.3,3.7,2.3,3.4,4.5l-3.2,24.1
			c-0.3,2.2-2.3,3.7-4.5,3.4l-98-13.2C455.2,295.2,453.6,293.2,453.9,291z"/>
		<path class="st7" d="M454.9,293l3.2-24.1c0.3-2.2,2.3-3.7,4.5-3.4l98,13.2c2.2,0.3,3.7,2.3,3.4,4.5l-3.2,24.1
			c-0.3,2.2-2.3,3.7-4.5,3.4l-98-13.2C456.1,297.2,454.6,295.2,454.9,293z"/>
		<path class="st1" d="M517,199.6c2.5,0,4.5,2,4.5,4.5v55.4c0,2.5-2,4.5-4.5,4.5h-2.7c-2.5,0-4.5-2-4.5-4.5v-55.4
			c0-2.5,2-4.5,4.5-4.5H517 M517,198.6h-2.7c-3,0-5.5,2.5-5.5,5.5v55.4c0,3,2.5,5.5,5.5,5.5h2.7c3,0,5.5-2.5,5.5-5.5v-55.4
			C522.5,201.1,520,198.6,517,198.6z"/>
		<g class="st3">
			<path d="M514.3,249.8h2.7c3,0,5.5,2.5,5.5,5.5v5.2c0,3-2.5,5.5-5.5,5.5h-2.7c-3,0-5.5-2.5-5.5-5.5v-5.2
				C508.8,252.3,511.3,249.8,514.3,249.8z"/>
		</g>
		<path class="st1" d="M514.3,248.8h2.7c3,0,5.5,2.5,5.5,5.5v5.2c0,3-2.5,5.5-5.5,5.5h-2.7c-3,0-5.5-2.5-5.5-5.5v-5.2
			C508.8,251.3,511.3,248.8,514.3,248.8z"/>
		<line class="st25" x1="618.8" y1="194.3" x2="656.1" y2="127.2"/>
		<g class="st26">
			<rect x="490.2" y="196.1" width="49.7" height="12.4"/>
		</g>
		<path class="st27" d="M491.2,194.9h47.7c0.6,0,1,0.4,1,1v9.2c0,0.6-0.4,1-1,1h-47.7c-0.6,0-1-0.4-1-1v-9.2
			C490.2,195.4,490.6,194.9,491.2,194.9z"/>
		<rect x="490.2" y="194.9" class="st20" width="49.7" height="3.7"/>
		<line class="st25" x1="707.1" y1="127.2" x2="661.1" y2="195.5"/>
		<line class="st25" x1="707.1" y1="195.5" x2="659.8" y2="124.7"/>
		<line class="st25" x1="661.7" y1="195.5" x2="706.5" y2="195.5"/>
		<line class="st25" x1="707.1" y1="194.5" x2="661.1" y2="240.5"/>
		<line class="st25" x1="707.1" y1="240.5" x2="661.1" y2="194.5"/>
		<line class="st25" x1="661.7" y1="240.5" x2="706.5" y2="240.5"/>
		<line class="st25" x1="707.1" y1="239.4" x2="661.1" y2="285.4"/>
		<line class="st25" x1="707.1" y1="285.4" x2="661.1" y2="239.4"/>
		<line class="st25" x1="661.7" y1="285.4" x2="706.5" y2="285.4"/>
		<line class="st25" x1="707.1" y1="284.4" x2="661.1" y2="330.4"/>
		<line class="st25" x1="707.1" y1="330.4" x2="661.1" y2="284.4"/>
		<line class="st25" x1="661.7" y1="330.4" x2="706.5" y2="330.4"/>
		<line class="st25" x1="707.1" y1="329.3" x2="661.1" y2="375.3"/>
		<line class="st25" x1="707.1" y1="375.3" x2="661.1" y2="329.3"/>
		<line class="st25" x1="661.7" y1="375.3" x2="706.5" y2="375.3"/>
		<line class="st25" x1="707.1" y1="374.3" x2="661.1" y2="420.3"/>
		<line class="st25" x1="707.1" y1="420.3" x2="661.1" y2="374.3"/>
		<line class="st25" x1="661.7" y1="420.3" x2="706.5" y2="420.3"/>
		<line class="st25" x1="861.2" y1="132.1" x2="804" y2="191.8"/>
		<line class="st25" x1="861.2" y1="193" x2="804" y2="129.7"/>
		<line class="st25" x1="804" y1="129" x2="804" y2="190.6"/>
		<line class="st25" x1="710.8" y1="193" x2="749.3" y2="127.8"/>
		<line class="st25" x1="804" y1="127.8" x2="749.3" y2="193"/>
		<line class="st25" x1="804" y1="193.6" x2="749.3" y2="127.8"/>
		<line class="st25" x1="749.3" y1="193" x2="710.8" y2="127.8"/>
		<line class="st25" x1="749.3" y1="129" x2="749.3" y2="196.1"/>
		<line class="st25" x1="616.3" y1="194.3" x2="579.1" y2="137.1"/>
		<line class="st25" x1="579.1" y1="194.3" x2="620.1" y2="130.9"/>
		<line class="st25" x1="580.3" y1="140.2" x2="580.3" y2="194.3"/>
		<line class="st25" x1="617.6" y1="130.3" x2="617.6" y2="194.9"/>
		<line class="st25" x1="585.3" y1="134.6" x2="524.4" y2="189.9"/>
		<line class="st25" x1="579.1" y1="189.9" x2="524.4" y2="147.1"/>
		<line class="st25" x1="524.4" y1="145.2" x2="524.4" y2="193.7"/>
		<line class="st25" x1="523.8" y1="146.4" x2="468.5" y2="194.3"/>
		<line class="st25" x1="523.1" y1="189.9" x2="468.5" y2="153.3"/>
		<line class="st25" x1="468.5" y1="155.1" x2="468.5" y2="193"/>
		<line class="st28" x1="684.7" y1="25.3" x2="859.9" y2="132.1"/>
		<line class="st25" x1="657.4" y1="194.3" x2="618.8" y2="129.1"/>
		<line class="st28" x1="684.7" y1="25.3" x2="438.6" y2="157"/>
		<line class="st25" x1="470.3" y1="152.6" x2="436.5" y2="177.5"/>
		<line class="st25" x1="468.5" y1="193" x2="436.5" y2="166.5"/>
		<path class="st17" d="M659.1,126.7l201.5,5.4v61.2H438v-36.8L659.1,126.7 M658.9,123.7h-0.2l-221.1,29.8l-2.6,0.4v42.4h428.6
			v-67.1l-2.9-0.1l-201.5-5.4H658.9z"/>
		<path class="st17" d="M684.1,25c1.3,0,2.5,0.7,3.2,1.9l20.5,71.1v349.3h-47.2V97.9l20.5-71C681.5,25.7,682.7,25,684.1,25
			 M684.1,22c-2.4,0-4.7,1.3-5.8,3.5l-0.2,0.3L678,26l-20.4,71.1l-0.1,0.4v352.7h53.2V97.5l-0.1-0.4L690.1,26l-0.1-0.3l-0.2-0.3
			C688.7,23.3,686.5,22,684.1,22z"/>
		<rect x="651.8" y="360.2" class="st17" width="64.6" height="92"/>
		<polygon class="st17" points="711.4,329.1 656.7,329.1 651.8,360.2 716.4,360.2 		"/>
		<path class="st1" d="M517.4,254.1c1.6,1.3,2.6,3.3,2.6,5.4v9.9c0,3.8-3.1,6.8-6.8,6.8c-0.6,0-1.2-0.1-1.7-0.2
			c3,2.3,7.2,1.8,9.6-1.1c1-1.2,1.5-2.7,1.5-4.3v-9.9C522.5,257.6,520.4,254.9,517.4,254.1z"/>
		<line class="st25" x1="659.8" y1="123.4" x2="709.6" y2="98.6"/>
		<line class="st25" x1="709.6" y1="123.4" x2="659.8" y2="98.6"/>
		<line class="st25" x1="661.1" y1="96.1" x2="707.1" y2="96.1"/>
		<line class="st25" x1="661.1" y1="94.9" x2="700.9" y2="71.3"/>
		<line class="st25" x1="707.1" y1="96.1" x2="667.3" y2="72.5"/>
		<line class="st25" x1="667.3" y1="71.3" x2="700.9" y2="71.3"/>
		<line class="st25" x1="668.5" y1="70" x2="694.6" y2="48.9"/>
		<line class="st25" x1="698.4" y1="70" x2="672.3" y2="48.9"/>
		<path class="st29" d="M641.2,475.2h12.4l0,0v5.2c0,0.6-0.4,1-1,1h-10.4c-0.6,0-1-0.4-1-1V475.2L641.2,475.2z"/>
		<path class="st29" d="M715.2,475.8h12.4l0,0v5.2c0,0.6-0.4,1-1,1h-10.4c-0.6,0-1-0.4-1-1V475.8L715.2,475.8z"/>
		<line class="st25" x1="672.3" y1="47.6" x2="694.6" y2="47.6"/>
		<path class="st17" d="M619.5,449.7V477H750v-27.3H619.5z M635.6,467.1h-12.4v-11.2h12.4V467.1z M654,467.1h-12.4v-11.2H654
			L654,467.1z M672.5,467.1H660v-11.2h12.4V467.1z M690.9,467.1h-12.4v-11.2h12.4V467.1z M709.3,467.1h-12.4v-11.2h12.4V467.1z
			 M727.8,467.1h-12.4v-11.2h12.4V467.1z M746.2,467.1h-12.4v-11.2h12.4V467.1z"/>
		<g class="st18">
			<path d="M486.1,278.4c0.4,0.1,0.8,0.2,1.2,0.4c0.4,0.2,0.7,0.5,0.9,0.8c0.2,0.3,0.4,0.7,0.5,1.1c0.1,0.4,0.1,0.8,0.1,1.2
				l-0.1,0.5c-0.1,0.4-0.2,0.8-0.4,1.2c-0.2,0.4-0.5,0.7-0.8,0.9s-0.7,0.4-1.1,0.5c-0.4,0.1-0.8,0.1-1.3,0.1l-2.9-0.4l-0.6,4.8
				l-2-0.3l1.6-11.5L486.1,278.4z M482.9,280.1l-0.4,2.7l2.6,0.3c0.5,0.1,0.9,0,1.1-0.2s0.4-0.5,0.5-0.9c0.1-0.4,0-0.7-0.2-1
				c-0.2-0.3-0.5-0.5-1-0.5L482.9,280.1z"/>
			<path d="M491.9,284c0.2-0.2,0.4-0.4,0.7-0.6c0.3-0.2,0.6-0.3,0.9-0.4c0.3-0.1,0.7-0.1,1.1-0.2c0.4,0,0.7,0,1.1,0l0.2,0l-0.3,2.1
				l-0.2,0c-0.4-0.1-0.8,0-1.3,0.1c-0.4,0.1-0.9,0.3-1.3,0.5c-0.4,0.2-0.7,0.5-1,0.8c-0.3,0.3-0.4,0.6-0.5,0.9l-0.5,3.6l-2.1-0.3
				l1.2-8.6l2.1,0.3L491.9,284z"/>
			<path d="M500.8,283.4c0.5,0.1,0.9,0.2,1.3,0.4c0.4,0.2,0.7,0.5,0.9,0.8c0.2,0.3,0.4,0.7,0.5,1.1c0.1,0.4,0.1,0.8,0,1.3l-0.3,2.3
				c-0.1,0.5-0.2,0.9-0.4,1.3c-0.2,0.4-0.5,0.7-0.8,0.9c-0.3,0.2-0.7,0.4-1.1,0.5c-0.4,0.1-0.9,0.1-1.4,0l-0.7-0.1
				c-0.5-0.1-0.9-0.2-1.3-0.4s-0.7-0.5-0.9-0.8c-0.2-0.3-0.4-0.7-0.5-1.1c-0.1-0.4-0.1-0.8,0-1.3l0.3-2.3c0.1-0.5,0.2-0.9,0.4-1.3
				c0.2-0.4,0.4-0.7,0.8-0.9c0.3-0.2,0.7-0.4,1.1-0.5c0.4-0.1,0.9-0.1,1.3,0L500.8,283.4z M499.9,285.2c-0.3,0-0.7,0-0.9,0.2
				c-0.3,0.2-0.4,0.5-0.5,0.9l-0.3,2.2c0,0.4,0,0.7,0.2,1c0.2,0.3,0.5,0.4,0.8,0.5l0.7,0.1c0.4,0,0.7,0,0.9-0.2
				c0.3-0.2,0.4-0.5,0.5-0.9l0.3-2.2c0.1-0.4,0-0.7-0.2-0.9c-0.2-0.3-0.5-0.4-0.8-0.5L499.9,285.2z"/>
			<path d="M507.8,291.1c0.3,0,0.5,0,0.7-0.1c0.2-0.1,0.4-0.3,0.4-0.5l2,0.3c-0.2,0.8-0.6,1.4-1.2,1.8c-0.6,0.4-1.3,0.6-2.2,0.4
				l-0.7-0.1c-0.5-0.1-0.9-0.2-1.3-0.4c-0.4-0.2-0.7-0.5-0.9-0.8c-0.2-0.3-0.4-0.7-0.5-1.1c-0.1-0.4-0.1-0.8-0.1-1.3l0.3-2.3
				c0.1-0.5,0.2-0.9,0.4-1.3c0.2-0.4,0.5-0.7,0.8-0.9c0.3-0.2,0.7-0.4,1.1-0.5c0.4-0.1,0.9-0.1,1.3,0l0.7,0.1c0.9,0.1,1.6,0.5,2.1,1
				c0.5,0.6,0.7,1.3,0.6,2.1l-2-0.3c0-0.3-0.1-0.5-0.3-0.6s-0.4-0.3-0.7-0.3l-0.7-0.1c-0.4,0-0.7,0-0.9,0.2
				c-0.3,0.2-0.4,0.5-0.5,0.9l-0.3,2.2c-0.1,0.4,0,0.7,0.2,1c0.2,0.3,0.5,0.4,0.8,0.5L507.8,291.1z"/>
			<path d="M512.2,288.1c0.1-0.4,0.2-0.8,0.4-1.1c0.2-0.3,0.5-0.6,0.8-0.9c0.3-0.2,0.6-0.4,1-0.5c0.4-0.1,0.7-0.2,1-0.1l1.9,0.3
				c0.4,0.1,0.8,0.2,1.1,0.4c0.3,0.2,0.6,0.5,0.8,0.8s0.3,0.7,0.4,1c0.1,0.4,0.1,0.7,0.1,1.1l-0.3,2.2l-5.5-0.7l-0.1,0.5
				c-0.1,0.4,0,0.7,0.2,0.9c0.2,0.2,0.5,0.3,0.9,0.4l3.9,0.5l-0.3,1.9l-4.4-0.6c-0.4-0.1-0.7-0.2-1-0.4c-0.3-0.2-0.6-0.4-0.8-0.7
				c-0.2-0.3-0.4-0.6-0.5-1c-0.1-0.4-0.1-0.8-0.1-1.2L512.2,288.1z M514.2,288.8l3.5,0.5l0-0.1c0.1-0.4,0-0.8-0.2-1.1
				c-0.2-0.3-0.5-0.5-0.9-0.6l-1-0.1c-0.2,0-0.3,0-0.5,0.1c-0.2,0.1-0.3,0.2-0.4,0.3s-0.2,0.3-0.3,0.4S514.2,288.6,514.2,288.8
				L514.2,288.8z"/>
			<path d="M520.7,289.2c0.1-0.4,0.2-0.8,0.4-1.1c0.2-0.3,0.5-0.6,0.8-0.9c0.3-0.2,0.6-0.4,1-0.5c0.4-0.1,0.7-0.2,1-0.1l1.9,0.3
				c0.4,0.1,0.8,0.2,1.1,0.4c0.3,0.2,0.6,0.5,0.8,0.8s0.3,0.7,0.4,1c0.1,0.4,0.1,0.7,0.1,1.1l-0.3,2.2l-5.5-0.7l-0.1,0.5
				c-0.1,0.4,0,0.7,0.2,0.9c0.2,0.2,0.5,0.3,0.9,0.4l3.9,0.5l-0.3,1.9l-4.4-0.6c-0.4-0.1-0.7-0.2-1-0.4c-0.3-0.2-0.6-0.4-0.8-0.7
				c-0.2-0.3-0.4-0.6-0.5-1c-0.1-0.4-0.1-0.8-0.1-1.2L520.7,289.2z M522.7,290l3.5,0.5l0-0.1c0.1-0.4,0-0.8-0.2-1.1
				c-0.2-0.3-0.5-0.5-0.9-0.6l-1-0.1c-0.2,0-0.3,0-0.5,0.1c-0.2,0.1-0.3,0.2-0.4,0.3s-0.2,0.3-0.3,0.4
				C522.8,289.5,522.7,289.7,522.7,290L522.7,290z"/>
			<path d="M531.6,296.3c-0.5-0.1-0.9-0.2-1.3-0.4s-0.7-0.5-0.9-0.8c-0.2-0.3-0.4-0.7-0.5-1.1c-0.1-0.4-0.1-0.8,0-1.3l0.3-2.3
				c0.1-0.5,0.2-0.9,0.4-1.3c0.2-0.4,0.5-0.7,0.8-0.9c0.3-0.2,0.7-0.4,1.1-0.5c0.4-0.1,0.9-0.1,1.4,0l0.7,0.1
				c0.5,0.1,0.9,0.2,1.3,0.4l0.4-3.1l1.9,0.3l-1.6,11.5L531.6,296.3z M533.9,294.7l0.5-3.5c0.1-0.4,0-0.7-0.2-1
				c-0.2-0.3-0.5-0.4-0.9-0.5l-0.7-0.1c-0.4,0-0.7,0-1,0.2s-0.5,0.5-0.5,0.8l-0.3,2.2c0,0.4,0,0.7,0.3,1c0.2,0.3,0.5,0.4,0.9,0.5
				L533.9,294.7z"/>
		</g>
	</g>
	<g id="Progress_bar">
		<path class="st14" d="M562,478.3l11-1.7l0,0l3.4,22c0.4,2.7-1.4,5.1-4.1,5.6l-1.3,0.2c-2.7,0.4-5.1-1.4-5.6-4.1L562,478.3
			L562,478.3z"/>
		<path class="st30" d="M493.4,459l148.9,19.5c3.4,0.4,5.8,3.6,5.4,7l-0.2,1.2c-0.4,3.4-3.6,5.8-7,5.4l-148.9-19.5
			c-3.4-0.4-5.8-3.6-5.4-7l0.2-1.2C486.9,461,490,458.6,493.4,459z"/>
		<g>
			<defs>
				<path id="SVGID_3_" d="M493.4,459l148.9,19.5c3.4,0.4,5.8,3.6,5.4,7l-0.2,1.2c-0.4,3.4-3.6,5.8-7,5.4l-148.9-19.5
					c-3.4-0.4-5.8-3.6-5.4-7l0.2-1.2C486.9,461,490,458.6,493.4,459z"/>
			</defs>
			<clipPath id="SVGID_4_">
				<use xlink:href="#SVGID_3_"  style="overflow:visible;"/>
			</clipPath>
			<g class="st31">
				
					<rect x="617.1" y="463.1" transform="matrix(0.13 -0.9915 0.9915 0.13 67.0301 1044.5499)" class="st23" width="23.3" height="41.9"/>
				<path class="st2" d="M609.9,470.4l40.5,5.3l-2.9,22.1l-40.6-5.3L609.9,470.4 M609,469.2l-3.2,24.1l42.5,5.6l3.2-24.1L609,469.2
					L609,469.2z"/>
				
					<rect x="533.5" y="410.1" transform="matrix(0.13 -0.9915 0.9915 0.13 5.1137 953.0281)" class="st7" width="24.3" height="127.1"/>
			</g>
		</g>
		<path class="st32" d="M493.4,459l148.9,19.5c3.4,0.4,5.8,3.6,5.4,7l-0.2,1.2c-0.4,3.4-3.6,5.8-7,5.4l-148.9-19.5
			c-3.4-0.4-5.8-3.6-5.4-7l0.2-1.2C486.9,461,490,458.6,493.4,459z"/>
	</g>
	<g id="Construction_workers">
		<polygon class="st33" points="545.3,612.8 538.6,611.8 538.4,609.3 545.6,610.5 		"/>
		
			<rect x="533.8" y="604" transform="matrix(0.1595 -0.9872 0.9872 0.1595 -153.3513 1041.5745)" class="st33" width="2.4" height="13.8"/>
		<polygon class="st34" points="545.4,612 535.8,610.5 536.9,598.4 548.1,600.2 		"/>
		<path class="st34" d="M524.6,608.8l13.6,2.2l-0.8-10.8c-2.8,2.9-4.3,3.9-9.5,3.4c-1.4-0.2-2.6,0.8-2.8,2.2L524.6,608.8z"/>
		<polygon class="st33" points="537.4,610.8 539,611 539,611 537.4,610.8 		"/>
		<polygon class="st33" points="562.6,602.5 555.8,602.5 555.3,600 562.6,600 		"/>
		<rect x="541.5" y="600" class="st33" width="13.8" height="2.4"/>
		<polygon class="st34" points="562.6,601.6 552.8,601.6 552,589.5 563.4,589.5 		"/>
		<path class="st34" d="M541.5,601.6h13.8l-2.4-10.5c-2.3,3.3-3.7,4.5-8.9,4.8c-1.4,0.1-2.5,1.2-2.5,2.6L541.5,601.6z"/>
		<path class="st35" d="M563.4,596h-21v-64h25.9c0.2,8.7,1.1,16.4-2.3,30.3C564.6,579.7,564,588,563.4,596z"/>
		<g>
			<defs>
				<path id="SVGID_5_" d="M563.4,596h-21v-64h25.9c0.2,8.7,1.1,16.4-2.3,30.3C564.6,579.7,564,588,563.4,596z"/>
			</defs>
			<clipPath id="SVGID_6_">
				<use xlink:href="#SVGID_5_"  style="overflow:visible;"/>
			</clipPath>
			<g class="st36">
				<path class="st20" d="M550.9,596h-11c0-11.2-4.9-34.2-4.9-63.9h19.5c0.1,8.7,0.8,16.4-1.7,30.3C551.8,579.7,551.3,588,550.9,596
					z"/>
			</g>
		</g>
		<path class="st37" d="M547.6,604.2l-11.8-0.3c0.3-11.2-3.2-34.3-2.4-64l19.5,0.5c-0.1,8.7,0.4,16.4-2.5,30.3
			C549,588,548.3,596.2,547.6,604.2z"/>
		<path class="st38" d="M530.4,539.6l0.2-0.1c0.6-0.2,1.2,0.1,1.4,0.7l1.1,3.3c0.2,0.6-0.1,1.2-0.7,1.4l-0.2,0.1
			c-0.6,0.2-1.2-0.1-1.4-0.7l-1.1-3.3C529.5,540.4,529.8,539.8,530.4,539.6z"/>
		<path class="st39" d="M560.5,463.2c0,6.9-5.6,16.6-12.5,16.6s-12.5-9.7-12.5-16.6c-0.2-6.9,5.3-12.7,12.2-12.9
			c6.9-0.2,12.7,5.3,12.9,12.2C560.5,462.8,560.5,463,560.5,463.2L560.5,463.2z"/>
		<path class="st40" d="M569,540.1c-11.1,6.2-22.6,3.8-42.1-0.8c2.1-16.3-0.3-48.7,5.7-56.7l31.4-4.4L569,540.1z"/>
		<g>
			<defs>
				<path id="SVGID_7_" d="M569,540.1c-11.1,6.2-22.6,3.8-42.1-0.8c2.1-16.3-0.3-48.7,5.7-56.7l31.4-4.4L569,540.1z"/>
			</defs>
			<clipPath id="SVGID_8_">
				<use xlink:href="#SVGID_7_"  style="overflow:visible;"/>
			</clipPath>
			<g class="st41">
				<path class="st16" d="M565,486.7l-27.5,3.3l-3.2,46.1c0,0,18.6,4,34.4-1.2l0,0L565,486.7z"/>
				<path class="st29" d="M571.6,533.9l0.4-0.1L571.6,533.9z"/>
				<path class="st29" d="M570.3,534.3l1.3-0.4L570.3,534.3z"/>
				<path class="st29" d="M571.9,533.8l1.1-0.4L571.9,533.8z"/>
				<path class="st29" d="M569.9,534.4l0.4-0.1L569.9,534.4z"/>
				<path class="st29" d="M568.8,534.8l1.1-0.3L568.8,534.8z"/>
				<path class="st29" d="M573.1,533.4l0.2-0.1L573.1,533.4z"/>
				<path class="st29" d="M568.8,534.8l-0.2,0.1L568.8,534.8z"/>
				<path class="st29" d="M575.6,532.5"/>
				<path class="st29" d="M575,532.8L575,532.8L575,532.8z"/>
				<path class="st29" d="M573.3,533.3l0.4-0.1L573.3,533.3z"/>
				<path class="st29" d="M575.2,532.7l0.5-0.2L575.2,532.7z"/>
				<path class="st29" d="M575.1,532.7L575.1,532.7L575.1,532.7z"/>
				<path class="st29" d="M573.7,533.2l0.4-0.1L573.7,533.2z"/>
				<path class="st29" d="M574.8,532.8l0.2-0.1L574.8,532.8z"/>
				<path class="st29" d="M574,533.1l0.8-0.3L574,533.1z"/>
				<path class="st23" d="M567.4,518.3c-8.3,1.5-16.8,1.5-25.1,0v-4c8.3,1.5,16.8,1.5,25.1,0V518.3z"/>
				<path class="st23" d="M567.4,508.6c-8.3,1.5-16.8,1.5-25.1,0v-4c8.3,1.4,16.8,1.4,25.1,0V508.6z"/>
			</g>
		</g>
		<g class="st3">
			<path d="M528.8,548.8l-2-0.3c-1.3-0.2-2.2-1.3-2.1-2.6l0.6-9.5l8,1l-1.9,9.4C531.2,548,530,548.9,528.8,548.8z"/>
		</g>
		<path class="st39" d="M528.8,548.8l-2-0.3c-1.3-0.2-2.2-1.3-2.1-2.6l0.6-9.5l8,1l-1.9,9.4C531.2,548,530,548.9,528.8,548.8z"/>
		<path class="st42" d="M536.4,541.5l-12.2-1.2l4.8-43.7c0.5-5.3,4.3-8.7,8.6-8.3l4.3-3.4L536.4,541.5z"/>
		<path class="st40" d="M532.6,541.8l-8.1-1.6l2.9-48.7c0.5-5.3,5.2-9.2,10.5-8.7c0,0,0,0,0,0l2.6,0.3L532.6,541.8z"/>
		<path class="st1" d="M566.6,486c-9.8,8.1-22.2,7.6-36.2,2c-0.5-0.2-1-0.6-1.2-1.1c-4.3-9,17.3-17.4,10.6-25.5l18.9,1.8
			c9.9,6.8,0.3,13.2,7.8,19.2c1,0.8,1.2,2.2,0.5,3.2C566.8,485.8,566.7,485.9,566.6,486z"/>
		<path class="st40" d="M562.1,463.5c0.4-8.3-6-15.3-14.3-15.7c-7.4-0.4-13.9,4.7-15.4,11.9L562.1,463.5z"/>
		
			<rect x="544.7" y="446.6" transform="matrix(0.126 -0.992 0.992 0.126 19.5067 946.9273)" class="st43" width="4.9" height="31.6"/>
		<polygon class="st33" points="545.3,612.8 538.6,611.8 538.4,609.3 545.6,610.5 		"/>
		
			<rect x="533.8" y="604" transform="matrix(0.1595 -0.9872 0.9872 0.1595 -153.3513 1041.5745)" class="st33" width="2.4" height="13.8"/>
		<polygon class="st34" points="545.4,612 535.8,610.5 536.9,598.4 548.1,600.2 		"/>
		<path class="st34" d="M524.6,608.8l13.6,2.2l-0.8-10.8c-2.8,2.9-4.3,3.9-9.5,3.4c-1.4-0.2-2.6,0.8-2.8,2.2L524.6,608.8z"/>
		<polygon class="st33" points="537.4,610.8 539,611 539,611 537.4,610.8 		"/>
		<polygon class="st33" points="562.6,602.5 555.8,602.5 555.3,600 562.6,600 		"/>
		<rect x="541.5" y="600" class="st33" width="13.8" height="2.4"/>
		<polygon class="st34" points="562.6,601.6 552.8,601.6 552,589.5 563.4,589.5 		"/>
		<path class="st34" d="M541.5,601.6h13.8l-2.4-10.5c-2.3,3.3-3.7,4.5-8.9,4.8c-1.4,0.1-2.5,1.2-2.5,2.6L541.5,601.6z"/>
		<path class="st44" d="M563.4,596h-21v-64h25.9c0.2,8.7,1.1,16.4-2.3,30.3C564.6,579.7,564,588,563.4,596z"/>
		<g>
			<defs>
				<path id="SVGID_9_" d="M563.4,596h-21v-64h25.9c0.2,8.7,1.1,16.4-2.3,30.3C564.6,579.7,564,588,563.4,596z"/>
			</defs>
			<clipPath id="SVGID_10_">
				<use xlink:href="#SVGID_9_"  style="overflow:visible;"/>
			</clipPath>
			<g class="st45">
				<path class="st46" d="M550.9,596h-11c0-11.2-4.9-34.2-4.9-63.9h19.5c0.1,8.7,0.8,16.4-1.7,30.3C551.8,579.7,551.3,588,550.9,596
					z"/>
			</g>
		</g>
		<path class="st47" d="M547.6,604.2l-11.8-0.3c0.3-11.2-3.2-34.3-2.4-64l19.5,0.5c-0.1,8.7,0.4,16.4-2.5,30.3
			C549,588,548.3,596.2,547.6,604.2z"/>
		<path class="st38" d="M530.4,539.6l0.2-0.1c0.6-0.2,1.2,0.1,1.4,0.7l1.1,3.3c0.2,0.6-0.1,1.2-0.7,1.4l-0.2,0.1
			c-0.6,0.2-1.2-0.1-1.4-0.7l-1.1-3.3C529.5,540.4,529.8,539.8,530.4,539.6z"/>
		<path class="st39" d="M560.5,463.2c0,6.9-5.6,16.6-12.5,16.6s-12.5-9.7-12.5-16.6c-0.2-6.9,5.3-12.7,12.2-12.9
			c6.9-0.2,12.7,5.3,12.9,12.2C560.5,462.8,560.5,463,560.5,463.2L560.5,463.2z"/>
		<path class="st14" d="M569,540.1c-11.1,6.2-22.6,3.8-42.1-0.8c2.1-16.3-0.3-48.7,5.7-56.7l31.4-4.4L569,540.1z"/>
		<g>
			<defs>
				<path id="SVGID_11_" d="M569,540.1c-11.1,6.2-22.6,3.8-42.1-0.8c2.1-16.3-0.3-48.7,5.7-56.7l31.4-4.4L569,540.1z"/>
			</defs>
			<clipPath id="SVGID_12_">
				<use xlink:href="#SVGID_11_"  style="overflow:visible;"/>
			</clipPath>
			<g class="st48">
				<path class="st17" d="M565,486.7l-27.5,3.3l-3.2,46.1c0,0,18.6,4,34.4-1.2l0,0L565,486.7z"/>
				<path class="st29" d="M571.6,533.9l0.4-0.1L571.6,533.9z"/>
				<path class="st29" d="M570.3,534.3l1.3-0.4L570.3,534.3z"/>
				<path class="st29" d="M571.9,533.8l1.1-0.4L571.9,533.8z"/>
				<path class="st29" d="M569.9,534.4l0.4-0.1L569.9,534.4z"/>
				<path class="st29" d="M568.8,534.8l1.1-0.3L568.8,534.8z"/>
				<path class="st29" d="M573.1,533.4l0.2-0.1L573.1,533.4z"/>
				<path class="st29" d="M568.8,534.8l-0.2,0.1L568.8,534.8z"/>
				<path class="st29" d="M575.6,532.5"/>
				<path class="st29" d="M575,532.8L575,532.8L575,532.8z"/>
				<path class="st29" d="M573.3,533.3l0.4-0.1L573.3,533.3z"/>
				<path class="st29" d="M575.2,532.7l0.5-0.2L575.2,532.7z"/>
				<path class="st29" d="M575.1,532.7L575.1,532.7L575.1,532.7z"/>
				<path class="st29" d="M573.7,533.2l0.4-0.1L573.7,533.2z"/>
				<path class="st29" d="M574.8,532.8l0.2-0.1L574.8,532.8z"/>
				<path class="st29" d="M574,533.1l0.8-0.3L574,533.1z"/>
				<path class="st23" d="M567.4,518.3c-8.3,1.5-16.8,1.5-25.1,0v-4c8.3,1.5,16.8,1.5,25.1,0V518.3z"/>
				<path class="st23" d="M567.4,508.6c-8.3,1.5-16.8,1.5-25.1,0v-4c8.3,1.4,16.8,1.4,25.1,0V508.6z"/>
			</g>
		</g>
		<g class="st3">
			<path d="M528.8,548.8l-2-0.3c-1.3-0.2-2.2-1.3-2.1-2.6l0.6-9.5l8,1l-1.9,9.4C531.2,548,530,548.9,528.8,548.8z"/>
		</g>
		<path class="st39" d="M528.8,548.8l-2-0.3c-1.3-0.2-2.2-1.3-2.1-2.6l0.6-9.5l8,1l-1.9,9.4C531.2,548,530,548.9,528.8,548.8z"/>
		<path class="st42" d="M536.4,541.5l-12.2-1.2l4.8-43.7c0.5-5.3,4.3-8.7,8.6-8.3l4.3-3.4L536.4,541.5z"/>
		<path class="st14" d="M532.6,541.8l-8.1-1.6l2.9-48.7c0.5-5.3,5.2-9.2,10.5-8.7c0,0,0,0,0,0l2.6,0.3L532.6,541.8z"/>
		<path class="st1" d="M566.6,486c-9.8,8.1-22.2,7.6-36.2,2c-0.5-0.2-1-0.6-1.2-1.1c-4.3-9,17.3-17.4,10.6-25.5l18.9,1.8
			c9.9,6.8,0.3,13.2,7.8,19.2c1,0.8,1.2,2.2,0.5,3.2C566.8,485.8,566.7,485.9,566.6,486z"/>
		<path class="st14" d="M562.1,463.5c0.4-8.3-6-15.3-14.3-15.7c-7.4-0.4-13.9,4.7-15.4,11.9L562.1,463.5z"/>
		
			<rect x="544.7" y="446.6" transform="matrix(0.126 -0.992 0.992 0.126 19.5067 946.9273)" class="st49" width="4.9" height="31.6"/>
	</g>
	<g id="Reference">
		<rect x="364.5" y="223" class="st50" width="2" height="273"/>
		<rect x="389.5" y="223" class="st50" width="2" height="273"/>
		
			<rect x="365.3" y="255" transform="matrix(1 -1.919857e-03 1.919857e-03 1 -0.4914 0.7248)" class="st51" width="24" height="2.6"/>
		
			<rect x="365.3" y="266.6" transform="matrix(1 -1.919857e-03 1.919857e-03 1 -0.5137 0.7249)" class="st51" width="24" height="2.6"/>
		
			<rect x="365.4" y="278.2" transform="matrix(1 -1.919857e-03 1.919857e-03 1 -0.5359 0.725)" class="st51" width="24" height="2.6"/>
		
			<rect x="365.4" y="289.8" transform="matrix(1 -1.919857e-03 1.919857e-03 1 -0.5582 0.7251)" class="st51" width="24" height="2.6"/>
		
			<rect x="365.4" y="301.4" transform="matrix(1 -1.919857e-03 1.919857e-03 1 -0.5805 0.7252)" class="st51" width="24" height="2.6"/>
		
			<rect x="365.4" y="313.1" transform="matrix(1 -1.745326e-03 1.745326e-03 1 -0.5482 0.6592)" class="st51" width="24" height="2.6"/>
		
			<rect x="365.4" y="324.7" transform="matrix(1 -1.745326e-03 1.745326e-03 1 -0.5684 0.6593)" class="st51" width="24" height="2.6"/>
		
			<rect x="365.5" y="336.3" transform="matrix(1 -1.745326e-03 1.745326e-03 1 -0.5887 0.6594)" class="st51" width="24" height="2.6"/>
		
			<rect x="365.5" y="348" transform="matrix(1 -1.745326e-03 1.745326e-03 1 -0.609 0.6594)" class="st51" width="24" height="2.6"/>
		
			<rect x="365.5" y="359.6" transform="matrix(1 -1.745326e-03 1.745326e-03 1 -0.6292 0.6595)" class="st51" width="24" height="2.6"/>
		
			<rect x="365.5" y="371.2" transform="matrix(1 -1.570794e-03 1.570794e-03 1 -0.5847 0.5935)" class="st51" width="24" height="2.6"/>
		
			<rect x="365.6" y="382.8" transform="matrix(1 -1.570794e-03 1.570794e-03 1 -0.6029 0.5935)" class="st51" width="24" height="2.6"/>
		
			<rect x="365.6" y="394.4" transform="matrix(1 -1.570794e-03 1.570794e-03 1 -0.6212 0.5936)" class="st51" width="24" height="2.6"/>
		
			<rect x="365.6" y="406.1" transform="matrix(1 -1.570794e-03 1.570794e-03 1 -0.6394 0.5937)" class="st51" width="24" height="2.6"/>
		
			<rect x="365.7" y="417.7" transform="matrix(1 -1.570794e-03 1.570794e-03 1 -0.6576 0.5938)" class="st51" width="24" height="2.6"/>
		
			<rect x="365.7" y="429.3" transform="matrix(1 -1.570794e-03 1.570794e-03 1 -0.6759 0.5938)" class="st51" width="24" height="2.6"/>
		
			<rect x="365.7" y="441" transform="matrix(1 -1.396262e-03 1.396262e-03 1 -0.6171 0.5277)" class="st51" width="24" height="2.6"/>
		
			<rect x="365.7" y="452.6" transform="matrix(1 -1.396262e-03 1.396262e-03 1 -0.6333 0.5278)" class="st51" width="24" height="2.6"/>
		
			<rect x="365.7" y="464.2" transform="matrix(1 -1.396262e-03 1.396262e-03 1 -0.6496 0.5279)" class="st51" width="24" height="2.6"/>
		<polygon class="st51" points="389.8,478.4 365.8,478.4 365.8,475.8 389.8,475.8 		"/>
		<polygon class="st51" points="389.8,490 365.8,490 365.8,487.4 389.8,487.4 		"/>
		
			<rect x="365.3" y="255" transform="matrix(1 -1.919857e-03 1.919857e-03 1 -0.4914 0.7248)" class="st50" width="24" height="2.6"/>
		
			<rect x="365.3" y="266.6" transform="matrix(1 -1.919857e-03 1.919857e-03 1 -0.5137 0.7249)" class="st50" width="24" height="2.6"/>
		
			<rect x="365.4" y="278.2" transform="matrix(1 -1.919857e-03 1.919857e-03 1 -0.5359 0.725)" class="st50" width="24" height="2.6"/>
		
			<rect x="365.4" y="289.8" transform="matrix(1 -1.919857e-03 1.919857e-03 1 -0.5582 0.7251)" class="st50" width="24" height="2.6"/>
		
			<rect x="365.4" y="301.4" transform="matrix(1 -1.919857e-03 1.919857e-03 1 -0.5805 0.7252)" class="st50" width="24" height="2.6"/>
		
			<rect x="365.4" y="313.1" transform="matrix(1 -1.745326e-03 1.745326e-03 1 -0.5482 0.6592)" class="st50" width="24" height="2.6"/>
		
			<rect x="365.4" y="324.7" transform="matrix(1 -1.745326e-03 1.745326e-03 1 -0.5684 0.6593)" class="st50" width="24" height="2.6"/>
		
			<rect x="365.5" y="336.3" transform="matrix(1 -1.745326e-03 1.745326e-03 1 -0.5887 0.6594)" class="st50" width="24" height="2.6"/>
		
			<rect x="365.5" y="348" transform="matrix(1 -1.745326e-03 1.745326e-03 1 -0.609 0.6594)" class="st50" width="24" height="2.6"/>
		
			<rect x="365.5" y="359.6" transform="matrix(1 -1.745326e-03 1.745326e-03 1 -0.6292 0.6595)" class="st50" width="24" height="2.6"/>
		
			<rect x="365.5" y="371.2" transform="matrix(1 -1.570794e-03 1.570794e-03 1 -0.5847 0.5935)" class="st50" width="24" height="2.6"/>
		
			<rect x="365.6" y="382.8" transform="matrix(1 -1.570794e-03 1.570794e-03 1 -0.6029 0.5935)" class="st50" width="24" height="2.6"/>
		
			<rect x="365.6" y="394.4" transform="matrix(1 -1.570794e-03 1.570794e-03 1 -0.6212 0.5936)" class="st50" width="24" height="2.6"/>
		
			<rect x="365.6" y="406.1" transform="matrix(1 -1.570794e-03 1.570794e-03 1 -0.6394 0.5937)" class="st50" width="24" height="2.6"/>
		
			<rect x="365.7" y="417.7" transform="matrix(1 -1.570794e-03 1.570794e-03 1 -0.6576 0.5938)" class="st50" width="24" height="2.6"/>
		
			<rect x="365.7" y="429.3" transform="matrix(1 -1.570794e-03 1.570794e-03 1 -0.6759 0.5938)" class="st50" width="24" height="2.6"/>
		
			<rect x="365.7" y="441" transform="matrix(1 -1.396262e-03 1.396262e-03 1 -0.6171 0.5277)" class="st50" width="24" height="2.6"/>
		
			<rect x="365.7" y="452.6" transform="matrix(1 -1.396262e-03 1.396262e-03 1 -0.6333 0.5278)" class="st50" width="24" height="2.6"/>
		
			<rect x="365.7" y="464.2" transform="matrix(1 -1.396262e-03 1.396262e-03 1 -0.6496 0.5279)" class="st50" width="24" height="2.6"/>
		<polygon class="st50" points="389.8,478.4 365.8,478.4 365.8,475.8 389.8,475.8 		"/>
		<polygon class="st50" points="389.8,490 365.8,490 365.8,487.4 389.8,487.4 		"/>
	</g>
	<g id="Painter">
		<polygon class="st34" points="406.9,169.8 400.5,169.8 399.7,165 407.7,165 		"/>
		<rect x="402.7" y="172" class="st29" width="2" height="4"/>
		<rect x="400.5" y="169.8" class="st52" width="6.4" height="2.4"/>
		<rect x="400.5" y="170.6" class="st29" width="6.4" height="2.4"/>
		<path class="st39" d="M385.9,170.2c0,4.8-3.9,11.4-8.7,11.4s-8.7-6.7-8.7-11.4c0-4.8,3.9-8.7,8.7-8.7S385.9,165.4,385.9,170.2z"/>
		<path class="st39" d="M373.3,178.3h7.1c0.1,0,0.3,0.1,0.3,0.3v5c0,0.1-0.1,0.3-0.3,0.3h-7.1c-0.1,0-0.3-0.1-0.3-0.3v-5
			C373.1,178.4,373.2,178.3,373.3,178.3z"/>
		<path class="st39" d="M403.8,174.2L403.8,174.2c1.7,0,3.1,1.4,3.1,3.1v3.7c0,0.4-0.3,0.8-0.8,0.8h-5.4l0,0v-4.5
			C400.7,175.6,402.1,174.2,403.8,174.2z"/>
		<path class="st34" d="M371.4,252.2h2.7c1.3,0,2.4,1.1,2.4,2.4v0c0,1.3-1.1,2.4-2.4,2.4h-2.7c-1.3,0-2.4-1.1-2.4-2.4v0
			C368.9,253.3,370,252.2,371.4,252.2z"/>
		<path class="st34" d="M381,252.2h2.7c1.3,0,2.4,1.1,2.4,2.4v0c0,1.3-1.1,2.4-2.4,2.4H381c-1.3,0-2.4-1.1-2.4-2.4v0
			C378.6,253.3,379.7,252.2,381,252.2z"/>
		<path class="st14" d="M400.6,199.6l-2.7-0.4l2.7-19.1l6.1,0.9l-2.2,15.7C404.3,198.5,404.1,200.4,400.6,199.6z"/>
		<polygon class="st47" points="368.2,254.9 386.9,254.9 389.6,235 389.6,219.7 365.5,219.7 365.5,235 		"/>
		<rect x="377.2" y="220.4" class="st53" width="1.4" height="34.5"/>
		<polyline class="st14" points="391.2,185.8 380.7,182.5 373.1,182.5 362.7,185.9 365.5,220.4 389.6,220.4 391,198.1 401.4,199.7 
			402.2,193.3 391.7,186 		"/>
		<g>
			<defs>
				<polyline id="SVGID_13_" points="391.2,185.8 380.7,182.5 373.1,182.5 362.7,185.9 365.5,220.4 389.6,220.4 391,198.1 
					401.4,199.7 402.2,193.3 391.7,186 				"/>
			</defs>
			<clipPath id="SVGID_14_">
				<use xlink:href="#SVGID_13_"  style="overflow:visible;"/>
			</clipPath>
			<g class="st54">
				<path class="st17" d="M376.9,181.1c2.1,0,3.8,0.6,3.8,1.4s-1.7,1.4-3.8,1.4s-3.8-0.6-3.8-1.4S374.8,181.1,376.9,181.1h-11.4
					v42.8h24.2v-42.8H376.9z"/>
				<rect x="368.9" y="192" class="st23" width="16.6" height="2"/>
			</g>
		</g>
		<path class="st39" d="M360.9,218.4h2.2c1.3,0,2.4,1.1,2.4,2.4v0.1c0,1.3-1.1,2.4-2.4,2.4h-2.2c-1.3,0-2.4-1.1-2.4-2.4v-0.1
			C358.6,219.4,359.6,218.4,360.9,218.4z"/>
		<path class="st37" d="M379.4,177.9c-1.4-0.2-2.9-0.3-4.4-0.1c-4,0.7-6.8-0.3-6.8-4.3v-2.1c0-4.1,2.8-5,6.8-4.3
			c1.5,0.2,2.9,0.1,4.4-0.1c4-0.9,6.8,0,6.8,4.4v2.2C386.2,177.9,383.4,178.8,379.4,177.9z"/>
		<g class="st3">
			<path d="M359.3,221.1h7.2l1.4-36.6l-4.1,1.4c-2.7,0-3.5,2.3-3.6,5L359.3,221.1z"/>
		</g>
		<path class="st14" d="M358.3,221.1h7.2l1.4-36.6l-4.1,1.4c-2.7,0-3.5,2.3-3.6,5L358.3,221.1z"/>
		<path class="st14" d="M387.5,170.1c0-5.7-4.6-10.3-10.3-10.3c-5.7,0-10.3,4.6-10.3,10.3H387.5z"/>
		<rect x="366.3" y="168.9" class="st49" width="21.8" height="3.4"/>
	</g>
</g>
</svg>
